<svg xmlns="http://www.w3.org/2000/svg" viewBox="0 0 30.04 30.04"><defs><style>.cls-1{fill:#fff;}</style></defs><g id="Capa_2" data-name="Capa 2"><g id="Layer_1" data-name="Layer 1"><path class="cls-1" d="M28.78,13.77h-2.5V11.26a1.25,1.25,0,1,0-2.5,0v2.51h-2.5a1.25,1.25,0,1,0,0,2.5h2.5v2.5a1.25,1.25,0,0,0,2.5,0v-2.5h2.5a1.25,1.25,0,1,0,0-2.5Z"/><circle class="cls-1" cx="11.26" cy="7.51" r="7.51"/><path class="cls-1" d="M11.26,17.52A11.28,11.28,0,0,0,0,28.78,1.25,1.25,0,0,0,1.25,30h20a1.25,1.25,0,0,0,1.25-1.26A11.29,11.29,0,0,0,11.26,17.52Z"/></g></g></svg>